<?xml version="1.0" standalone="no"?>
<!DOCTYPE svg PUBLIC "-//W3C//DTD SVG 20010904//EN"
 "http://www.w3.org/TR/2001/REC-SVG-20010904/DTD/svg10.dtd">
<svg version="1.0" xmlns="http://www.w3.org/2000/svg"
 width="900.000000pt" height="900.000000pt" viewBox="0 0 900.000000 900.000000"
 preserveAspectRatio="xMidYMid meet">

<g transform="translate(0.000000,900.000000) scale(0.100000,-0.100000)"
fill="#000000" stroke="none">
<path d="M4199 8996 c-2 -2 -60 -9 -129 -15 -1014 -95 -1976 -540 -2704 -1251
-321 -314 -555 -615 -772 -992 -320 -556 -506 -1142 -576 -1808 -17 -164 -17
-695 0 -860 80 -767 325 -1454 742 -2075 158 -236 316 -430 525 -643 700 -718
1646 -1191 2620 -1311 304 -38 355 -41 595 -41 238 0 279 3 595 41 639 77
1308 325 1870 693 229 150 471 345 674 541 720 699 1203 1661 1320 2630 38
316 41 357 41 595 0 240 -3 291 -41 595 -60 485 -203 954 -433 1415 -234 469
-522 860 -902 1229 -691 671 -1618 1115 -2554 1225 -69 8 -166 20 -216 25 -84
10 -645 16 -655 7z m2991 -2500 c0 -5 -86 -72 -606 -471 -187 -142 -456 -349
-599 -459 -143 -110 -296 -227 -340 -260 -44 -33 -180 -137 -301 -231 -122
-93 -354 -272 -517 -397 -162 -126 -299 -228 -304 -228 -5 0 -41 24 -79 53
-38 29 -118 91 -179 137 -60 47 -202 156 -315 242 -235 181 -484 372 -650 500
-63 48 -200 154 -305 234 -209 162 -413 318 -454 349 -14 11 -125 96 -246 189
-121 94 -268 206 -327 250 -59 45 -108 84 -108 89 0 4 1199 7 2665 7 1466 0
2665 -2 2665 -4z m-5194 -696 c93 -72 189 -146 214 -165 25 -19 146 -112 270
-208 124 -95 379 -291 568 -436 188 -145 342 -266 342 -270 0 -3 -353 -359
-785 -791 l-785 -785 0 1393 c0 765 2 1392 4 1392 2 0 79 -59 172 -130z m5224
-1267 l0 -1388 -785 785 c-432 432 -785 787 -785 791 0 3 79 66 176 140 302
230 395 302 514 394 63 49 198 153 300 230 102 78 271 208 375 288 105 81 193
147 198 147 4 0 7 -624 7 -1387z m-3245 -254 c105 -80 270 -207 367 -283 l178
-137 167 129 c437 335 568 434 577 438 6 2 445 -430 976 -961 l965 -965 -2683
0 c-1475 0 -2682 3 -2682 7 0 18 1925 1932 1935 1924 5 -4 96 -73 200 -152z"/>
</g>
</svg>
