<svg id="svg" xmlns="http://www.w3.org/2000/svg" xmlns:xlink="http://www.w3.org/1999/xlink" width="400" height="400" viewBox="0, 0, 400,400"><g id="svgg"><path id="path0" d="M166.406 1.033 C 89.809 12.984,26.086 72.526,3.635 153.125 C -0.516 168.029,-0.516 231.971,3.635 246.875 C 54.206 428.426,293.924 457.485,379.330 292.417 C 407.257 238.442,408.192 165.316,381.641 111.719 C 355.097 58.133,308.225 20.372,247.656 3.776 C 238.401 1.240,178.122 -0.795,166.406 1.033 M232.031 80.466 C 321.001 104.754,353.501 215.472,291.362 282.589 C 222.321 357.162,99.374 323.627,79.038 224.675 C 60.883 136.340,145.284 56.785,232.031 80.466 M188.460 100.002 C 174.619 112.760,163.240 144.968,160.168 180.078 L 159.108 192.188 199.867 192.188 L 240.625 192.188 240.616 185.547 C 240.575 156.078,226.843 114.343,212.455 99.955 C 203.888 91.388,197.792 91.400,188.460 100.002 M149.628 105.706 C 121.381 120.773,99.025 152.887,94.591 184.766 L 93.559 192.188 117.642 192.188 L 141.726 192.187 142.761 178.731 C 144.330 158.323,147.924 143.161,155.685 124.219 C 167.007 96.585,166.965 96.459,149.628 105.706 M236.409 102.734 C 236.868 104.238,240.441 113.203,244.349 122.656 C 252.576 142.556,256.096 157.447,257.366 177.734 L 258.272 192.188 282.261 192.188 L 306.250 192.188 306.250 187.750 C 306.250 159.386,279.664 120.407,250.195 105.567 C 237.772 99.311,235.201 98.782,236.409 102.734 M94.532 216.016 C 99.743 248.750,122.054 280.458,149.660 294.360 C 166.279 302.729,167.650 302.349,161.908 290.964 C 151.355 270.038,146.124 251.931,143.416 226.953 L 141.510 209.375 117.492 209.375 L 93.475 209.375 94.532 216.016 M160.135 219.922 C 164.764 268.342,182.410 306.250,200.320 306.250 C 218.397 306.250,240.551 256.210,240.616 215.234 L 240.625 209.375 199.876 209.375 L 159.126 209.375 160.135 219.922 M257.813 217.764 C 257.813 236.703,252.304 259.803,242.187 283.289 C 234.877 300.259,234.908 301.098,242.752 298.509 C 271.226 289.112,300.887 250.809,305.423 217.578 L 306.543 209.375 282.178 209.375 L 257.813 209.375 257.813 217.764 " stroke="none" fill="#000000" fill-rule="evenodd"></path></g></svg>