<svg id="svg" xmlns="http://www.w3.org/2000/svg" xmlns:xlink="http://www.w3.org/1999/xlink" width="400" height="400" viewBox="0, 0, 400,400"><g id="svgg"><path id="path0" d="M186.621 0.205 C 185.439 0.283,183.374 0.487,182.031 0.658 C 180.688 0.829,179.148 0.971,178.608 0.973 C 178.067 0.975,176.398 1.158,174.897 1.381 C 173.396 1.603,171.509 1.856,170.703 1.944 C 168.579 2.173,162.196 3.355,157.813 4.330 C 156.792 4.558,155.562 4.808,155.078 4.888 C 154.005 5.064,151.224 5.762,149.138 6.379 C 148.289 6.630,147.454 6.836,147.284 6.836 C 147.113 6.836,146.315 7.044,145.508 7.298 C 144.702 7.552,143.208 8.007,142.188 8.309 C 139.871 8.994,134.012 10.929,131.934 11.696 C 131.074 12.013,130.063 12.378,129.688 12.508 C 129.312 12.637,128.541 12.952,127.974 13.207 C 127.408 13.463,126.861 13.672,126.759 13.672 C 126.657 13.672,126.094 13.892,125.507 14.160 C 124.919 14.429,124.324 14.649,124.182 14.649 C 124.041 14.650,123.493 14.869,122.965 15.138 C 122.436 15.406,121.920 15.625,121.817 15.625 C 121.622 15.625,119.572 16.550,118.321 17.202 C 117.923 17.409,117.506 17.578,117.393 17.578 C 117.209 17.578,111.621 20.201,110.645 20.745 C 110.430 20.865,109.243 21.483,108.008 22.119 C 104.735 23.803,100.796 25.990,100.671 26.192 C 100.612 26.288,100.430 26.367,100.268 26.367 C 100.106 26.367,99.686 26.587,99.334 26.855 C 98.982 27.124,98.622 27.344,98.535 27.344 C 98.448 27.344,98.089 27.563,97.737 27.832 C 97.384 28.101,97.038 28.320,96.967 28.320 C 96.896 28.320,96.560 28.518,96.222 28.759 C 95.883 29.001,95.371 29.330,95.085 29.492 C 93.094 30.614,87.169 34.422,86.914 34.743 C 86.860 34.811,86.170 35.305,85.379 35.841 C 84.589 36.378,83.696 36.992,83.395 37.207 C 81.944 38.242,80.151 39.555,79.940 39.738 C 79.810 39.850,79.293 40.249,78.792 40.625 C 78.291 41.001,77.342 41.737,76.684 42.261 C 76.027 42.784,74.543 43.962,73.389 44.878 C 72.234 45.795,71.289 46.619,71.289 46.710 C 71.289 46.801,71.177 46.875,71.040 46.875 C 70.902 46.875,70.566 47.117,70.293 47.412 C 70.019 47.708,69.323 48.345,68.747 48.828 C 65.031 51.944,59.745 56.987,54.516 62.402 C 53.292 63.670,50.243 67.065,48.828 68.735 C 48.345 69.306,47.729 70.015,47.461 70.312 C 46.433 71.449,45.273 72.835,44.479 73.876 C 44.024 74.471,43.099 75.649,42.422 76.493 C 41.063 78.189,40.113 79.410,39.612 80.108 C 39.431 80.360,38.860 81.138,38.343 81.836 C 37.825 82.534,37.249 83.325,37.063 83.594 C 33.981 88.024,31.250 92.136,31.250 92.347 C 31.250 92.448,31.112 92.645,30.943 92.785 C 30.774 92.926,30.444 93.383,30.210 93.803 C 29.494 95.086,29.208 95.563,28.473 96.694 C 28.084 97.293,27.568 98.128,27.326 98.550 C 27.085 98.971,26.683 99.668,26.434 100.098 C 26.186 100.527,25.830 101.187,25.645 101.563 C 25.460 101.938,25.206 102.378,25.081 102.539 C 24.624 103.127,19.600 112.990,18.267 115.918 C 17.974 116.562,17.530 117.529,17.281 118.066 C 16.867 118.959,16.394 120.057,15.133 123.047 C 14.884 123.638,14.444 124.736,14.156 125.488 C 13.869 126.240,13.434 127.339,13.190 127.930 C 12.946 128.521,12.640 129.312,12.509 129.688 C 12.379 130.063,12.013 131.074,11.697 131.934 C 9.510 137.879,6.817 146.833,5.412 152.832 C 3.959 159.038,2.278 167.728,1.955 170.703 C 1.868 171.509,1.616 173.486,1.397 175.098 C -0.863 191.678,-0.423 215.514,2.451 232.227 C 2.719 233.784,2.936 235.220,2.934 235.417 C 2.924 236.263,5.313 247.097,6.386 251.074 C 8.433 258.656,10.421 264.901,12.229 269.434 C 12.486 270.078,12.696 270.716,12.696 270.851 C 12.696 270.985,12.915 271.551,13.184 272.108 C 13.452 272.665,13.672 273.233,13.672 273.372 C 13.672 273.511,13.882 274.088,14.139 274.654 C 14.395 275.220,14.826 276.211,15.096 276.855 C 16.088 279.228,16.986 281.274,18.310 284.180 C 19.000 285.694,22.879 293.455,23.532 294.629 C 23.831 295.166,24.286 296.001,24.542 296.484 C 24.799 296.968,25.213 297.715,25.461 298.145 C 25.710 298.574,26.133 299.321,26.401 299.805 C 27.448 301.696,27.784 302.258,28.047 302.554 C 28.197 302.724,28.320 302.935,28.320 303.024 C 28.320 303.113,28.540 303.474,28.809 303.826 C 29.077 304.178,29.297 304.533,29.297 304.615 C 29.297 304.697,29.517 305.098,29.785 305.507 C 30.054 305.916,30.482 306.580,30.738 306.982 C 32.090 309.115,36.207 315.259,36.816 316.053 C 37.031 316.333,37.354 316.768,37.534 317.021 C 37.714 317.274,38.285 318.044,38.804 318.733 C 39.322 319.422,39.878 320.178,40.039 320.413 C 41.213 322.126,46.511 328.711,46.714 328.711 C 46.803 328.711,46.875 328.823,46.875 328.960 C 46.875 329.098,47.117 329.434,47.412 329.707 C 47.708 329.981,48.345 330.677,48.828 331.253 C 53.774 337.151,62.600 345.982,68.734 351.172 C 69.305 351.655,70.015 352.271,70.311 352.539 C 71.987 354.059,78.515 359.283,79.466 359.863 C 79.641 359.971,79.961 360.209,80.176 360.393 C 80.588 360.745,82.765 362.364,83.594 362.933 C 83.862 363.118,84.653 363.672,85.352 364.165 C 87.694 365.819,92.168 368.750,92.350 368.750 C 92.449 368.750,92.645 368.888,92.785 369.057 C 92.926 369.226,93.383 369.556,93.803 369.790 C 95.409 370.686,95.623 370.814,96.222 371.241 C 96.560 371.482,96.905 371.680,96.987 371.680 C 97.070 371.680,97.276 371.803,97.446 371.953 C 97.615 372.103,98.105 372.425,98.535 372.669 C 99.750 373.358,101.012 374.057,101.718 374.431 C 102.072 374.618,102.467 374.856,102.597 374.959 C 102.960 375.248,105.989 376.844,109.875 378.796 C 113.864 380.798,116.992 382.264,120.508 383.779 C 121.313 384.126,122.436 384.622,123.002 384.881 C 123.569 385.140,124.124 385.352,124.236 385.352 C 124.348 385.352,124.919 385.571,125.507 385.840 C 126.094 386.108,126.657 386.328,126.759 386.328 C 126.861 386.328,127.408 386.537,127.974 386.793 C 128.541 387.048,129.312 387.363,129.688 387.492 C 130.063 387.621,131.206 388.031,132.227 388.404 C 134.206 389.126,139.704 390.930,142.285 391.704 C 146.173 392.869,147.205 393.164,147.392 393.164 C 147.503 393.164,148.289 393.370,149.138 393.622 C 149.988 393.874,151.694 394.314,152.930 394.600 C 154.165 394.885,156.119 395.338,157.271 395.606 C 158.424 395.874,159.508 396.094,159.681 396.094 C 159.853 396.094,161.020 396.309,162.273 396.571 C 165.705 397.291,169.077 397.884,170.605 398.038 C 171.357 398.114,173.379 398.363,175.098 398.592 C 178.173 399.002,179.746 399.166,185.875 399.713 C 190.256 400.104,208.937 400.102,213.770 399.710 C 219.254 399.265,221.596 399.038,224.023 398.717 C 225.259 398.554,226.973 398.331,227.832 398.223 C 239.979 396.691,255.656 392.832,267.871 388.367 C 268.945 387.975,270.439 387.435,271.191 387.167 C 271.943 386.900,272.642 386.602,272.744 386.505 C 272.846 386.408,273.086 386.328,273.277 386.328 C 273.468 386.328,274.088 386.118,274.654 385.861 C 275.220 385.605,276.255 385.157,276.953 384.867 C 277.651 384.576,278.664 384.127,279.202 383.869 C 279.741 383.610,280.246 383.398,280.325 383.398 C 280.403 383.398,281.061 383.123,281.787 382.787 C 282.512 382.451,283.677 381.913,284.375 381.592 C 285.954 380.865,293.282 377.242,293.945 376.861 C 294.214 376.707,295.518 375.983,296.843 375.253 C 298.168 374.523,299.574 373.743,299.968 373.520 C 300.362 373.296,301.035 372.914,301.465 372.670 C 301.895 372.426,302.378 372.124,302.539 372.000 C 302.805 371.794,303.324 371.491,304.549 370.829 C 305.229 370.461,312.931 365.424,313.086 365.246 C 313.168 365.152,314.499 364.233,316.496 362.891 C 316.736 362.729,317.460 362.202,318.106 361.719 C 318.751 361.235,319.523 360.664,319.820 360.449 C 320.118 360.234,320.630 359.840,320.958 359.572 C 321.286 359.305,321.970 358.777,322.479 358.400 C 323.564 357.595,328.047 354.008,328.613 353.492 C 329.393 352.781,330.249 352.033,331.264 351.172 C 334.041 348.818,339.468 343.758,342.053 341.113 C 346.475 336.588,348.832 334.039,351.173 331.250 C 351.759 330.552,352.416 329.787,352.633 329.552 C 353.635 328.462,353.982 328.043,356.156 325.293 C 357.430 323.682,358.785 321.971,359.168 321.492 C 359.550 321.013,359.951 320.477,360.059 320.301 C 360.166 320.124,360.678 319.418,361.196 318.730 C 361.715 318.043,362.286 317.272,362.466 317.016 C 362.646 316.761,362.972 316.322,363.191 316.040 C 363.409 315.758,363.937 315.000,364.362 314.355 C 364.788 313.711,365.184 313.140,365.242 313.086 C 365.358 312.978,367.865 309.176,369.042 307.324 C 369.451 306.680,369.992 305.840,370.244 305.458 C 370.497 305.077,370.703 304.697,370.703 304.615 C 370.703 304.533,370.923 304.178,371.191 303.826 C 371.460 303.474,371.680 303.113,371.680 303.024 C 371.680 302.935,371.803 302.724,371.953 302.554 C 372.103 302.385,372.426 301.895,372.670 301.465 C 372.914 301.035,373.317 300.332,373.566 299.902 C 373.814 299.473,374.170 298.813,374.355 298.438 C 374.540 298.062,374.794 297.622,374.919 297.461 C 375.366 296.887,380.377 287.057,381.689 284.180 C 382.393 282.638,384.326 278.231,384.903 276.855 C 385.173 276.211,385.605 275.220,385.861 274.654 C 386.118 274.088,386.328 273.511,386.328 273.372 C 386.328 273.233,386.548 272.665,386.816 272.108 C 387.085 271.551,387.304 270.985,387.304 270.851 C 387.304 270.716,387.514 270.078,387.771 269.434 C 389.257 265.709,391.086 260.138,392.645 254.590 C 395.348 244.970,397.166 236.027,398.520 225.684 C 400.497 210.585,400.532 189.247,398.603 175.098 C 398.384 173.486,398.132 171.509,398.045 170.703 C 397.722 167.728,396.041 159.038,394.588 152.832 C 393.191 146.867,390.477 137.845,388.303 131.934 C 387.987 131.074,387.622 130.063,387.492 129.688 C 387.363 129.312,387.048 128.541,386.793 127.974 C 386.537 127.408,386.328 126.831,386.328 126.692 C 386.328 126.554,386.108 125.985,385.840 125.428 C 385.571 124.871,385.352 124.330,385.352 124.224 C 385.352 124.118,385.140 123.569,384.881 123.002 C 384.622 122.436,384.126 121.313,383.779 120.508 C 383.143 119.032,382.593 117.798,381.688 115.820 C 380.195 112.554,375.415 103.175,374.920 102.539 C 374.794 102.378,374.540 101.938,374.355 101.563 C 374.170 101.187,373.814 100.527,373.566 100.098 C 373.317 99.668,372.914 98.965,372.670 98.535 C 372.426 98.105,372.103 97.615,371.953 97.446 C 371.803 97.276,371.680 97.065,371.680 96.976 C 371.680 96.887,371.475 96.542,371.226 96.210 C 370.976 95.877,370.719 95.460,370.653 95.282 C 370.483 94.819,366.912 89.339,364.819 86.328 C 364.482 85.845,363.845 84.924,363.403 84.283 C 362.960 83.641,362.175 82.543,361.657 81.841 C 361.140 81.140,360.569 80.363,360.388 80.114 C 358.591 77.643,353.477 71.289,353.286 71.289 C 353.197 71.289,353.125 71.159,353.125 71.001 C 353.125 70.842,352.905 70.568,352.637 70.392 C 352.368 70.216,352.148 69.955,352.148 69.811 C 352.148 69.668,352.030 69.480,351.885 69.394 C 351.741 69.309,350.941 68.447,350.108 67.480 C 345.802 62.482,336.708 53.393,332.424 49.806 C 331.512 49.043,330.695 48.291,330.608 48.135 C 330.521 47.979,330.332 47.852,330.189 47.852 C 330.045 47.852,329.784 47.632,329.608 47.363 C 329.432 47.095,329.158 46.875,328.999 46.875 C 328.841 46.875,328.711 46.803,328.711 46.714 C 328.711 46.492,321.493 40.709,320.475 40.115 C 320.270 39.996,319.908 39.721,319.670 39.505 C 319.308 39.175,314.412 35.679,313.442 35.059 C 313.274 34.951,312.370 34.336,311.433 33.691 C 310.495 33.047,309.581 32.432,309.401 32.324 C 309.221 32.217,308.799 31.931,308.462 31.689 C 308.125 31.448,307.764 31.250,307.660 31.250 C 307.555 31.250,307.355 31.112,307.215 30.943 C 307.074 30.774,306.617 30.444,306.197 30.210 C 304.645 29.345,304.382 29.190,303.808 28.808 C 303.065 28.314,302.677 28.078,301.465 27.386 C 300.928 27.079,300.137 26.621,299.707 26.369 C 297.720 25.202,297.301 24.967,296.387 24.503 C 295.850 24.230,294.531 23.531,293.457 22.950 C 290.959 21.598,284.824 18.573,281.738 17.173 C 281.010 16.842,279.704 16.287,276.855 15.096 C 276.211 14.826,275.220 14.395,274.654 14.139 C 274.088 13.882,273.468 13.672,273.277 13.672 C 273.086 13.672,272.846 13.592,272.744 13.495 C 272.642 13.398,271.943 13.100,271.191 12.834 C 270.439 12.567,269.209 12.111,268.457 11.820 C 267.705 11.529,266.475 11.091,265.723 10.846 C 264.971 10.601,264.004 10.270,263.574 10.111 C 262.297 9.639,257.689 8.226,254.590 7.355 C 241.417 3.653,226.523 1.099,212.793 0.188 C 209.911 -0.004,189.578 0.010,186.621 0.205 M124.580 73.055 C 133.209 74.137,139.523 82.109,138.469 90.591 C 136.846 103.648,121.051 109.173,111.798 99.920 C 102.302 90.423,107.885 74.469,121.195 73.068 C 122.052 72.977,122.800 72.892,122.857 72.878 C 122.913 72.863,123.689 72.943,124.580 73.055 M134.766 207.326 L 134.766 291.019 122.803 290.968 L 110.840 290.918 110.791 207.275 L 110.742 123.633 122.754 123.633 L 134.766 123.633 134.766 207.326 M244.272 123.929 C 279.757 126.782,305.994 144.921,317.967 174.879 C 338.690 226.729,306.252 282.169,250.586 290.041 C 244.288 290.932,246.009 290.895,206.982 290.963 L 170.117 291.027 170.117 207.330 L 170.117 123.633 205.356 123.633 C 235.074 123.633,241.170 123.679,244.272 123.929 M194.231 145.557 C 194.180 145.691,194.161 173.574,194.188 207.520 L 194.238 269.238 216.895 269.234 C 244.869 269.228,247.281 269.023,257.715 265.756 C 286.085 256.874,302.991 228.834,298.834 197.557 C 294.742 166.763,272.708 147.947,237.891 145.514 C 233.500 145.207,194.349 145.245,194.231 145.557 " stroke="none" fill="#000000" fill-rule="evenodd"></path></g></svg>