<svg version="1.0" xmlns="http://www.w3.org/2000/svg"
 width="750.000000pt" height="749.000000pt" viewBox="0 0 750.000000 749.000000"
 preserveAspectRatio="xMidYMid meet">
<g transform="translate(0.000000,749.000000) scale(0.100000,-0.100000)"
fill="#000000" stroke="none">
<path d="M3475 7455 c-11 -2 -69 -9 -130 -15 -184 -19 -407 -62 -585 -111 -97
-27 -372 -119 -385 -129 -5 -4 -21 -11 -35 -15 -49 -14 -319 -143 -370 -176
-14 -9 -55 -32 -92 -52 -123 -67 -339 -214 -453 -309 -128 -105 -180 -153
-300 -273 -145 -145 -182 -185 -250 -270 -22 -27 -42 -52 -45 -55 -3 -3 -31
-39 -61 -80 -403 -543 -632 -1119 -721 -1815 -18 -137 -17 -686 0 -825 21
-163 58 -363 93 -495 17 -66 34 -133 38 -150 47 -186 230 -608 357 -822 265
-448 634 -849 1060 -1153 61 -44 138 -95 170 -115 33 -20 66 -40 74 -45 100
-62 431 -230 454 -230 3 0 25 -9 49 -20 164 -76 489 -170 752 -219 223 -41
369 -52 655 -52 392 0 655 34 1010 133 266 73 610 216 815 337 28 16 68 39 90
51 106 58 323 213 470 335 112 93 307 281 406 390 144 160 331 421 442 616
362 638 521 1305 487 2041 -9 196 -15 251 -51 462 -34 199 -121 523 -169 631
-5 11 -25 63 -46 115 -59 151 -113 262 -238 485 -38 67 -154 241 -220 330
-522 699 -1263 1194 -2091 1396 -44 11 -96 24 -115 29 -33 9 -199 36 -360 61
-69 10 -660 22 -705 14z m2455 -1266 c0 -6 -25 -34 -56 -62 -168 -154 -164
-149 -179 -207 -8 -30 -15 -71 -15 -90 0 -45 29 -150 72 -265 l33 -90 -3 -279
c-2 -201 3 -360 18 -571 33 -480 25 -745 -24 -850 -29 -59 -50 -70 -140 -70
-184 1 -208 60 -208 510 1 149 6 349 13 445 6 96 12 319 13 495 l1 320 44 100
c36 83 44 114 48 181 4 55 2 84 -6 88 -6 4 -33 -5 -59 -20 -51 -30 -226 -158
-282 -208 -42 -37 -73 -61 -205 -158 -55 -41 -121 -96 -147 -123 -62 -62 -62
-81 -3 -274 78 -258 89 -345 60 -471 -54 -229 -146 -363 -373 -542 -217 -170
-272 -250 -272 -393 0 -163 76 -259 387 -487 199 -146 230 -173 290 -250 85
-111 141 -250 168 -418 18 -117 19 -189 1 -305 -18 -120 -38 -185 -85 -277
-196 -387 -707 -621 -1361 -622 -200 -1 -310 12 -475 54 -574 147 -913 488
-856 860 48 318 321 618 691 761 203 79 432 121 723 135 87 3 160 10 162 14 3
4 -8 25 -23 46 -62 86 -114 226 -128 347 -7 56 17 174 42 214 8 12 14 25 14
28 0 3 -26 5 -57 5 -84 0 -307 29 -389 50 -428 111 -668 407 -731 905 l-8 60
-520 5 -520 5 75 64 c41 35 77 67 80 70 3 3 34 31 70 61 36 30 81 69 100 86
65 58 216 189 275 239 32 28 82 70 110 95 28 25 75 65 105 90 29 25 58 50 64
55 6 6 63 55 126 110 63 54 135 117 160 139 25 23 75 66 110 96 35 30 71 62
80 70 9 8 31 28 50 44 19 16 64 54 100 86 36 31 79 69 95 83 l30 26 1358 1
c979 0 1357 -3 1357 -11z"/>
<path d="M3541 5574 c-36 -7 -79 -20 -97 -29 -18 -8 -35 -15 -39 -15 -15 0
-103 -67 -142 -108 -104 -110 -181 -347 -169 -527 18 -296 147 -577 363 -790
126 -123 278 -208 402 -223 158 -19 278 22 386 132 338 341 266 984 -153 1377
-96 90 -224 160 -340 184 -88 18 -126 18 -211 -1z"/>
<path d="M3700 2975 c-8 -2 -51 -9 -95 -15 -162 -25 -339 -81 -427 -137 -21
-12 -40 -23 -44 -23 -11 0 -130 -94 -162 -129 -57 -63 -110 -149 -134 -218
-20 -59 -23 -86 -22 -208 1 -152 7 -183 67 -305 21 -43 57 -90 107 -140 109
-110 213 -174 375 -228 185 -62 220 -67 465 -67 223 0 226 1 343 33 65 18 126
36 135 41 178 85 211 105 289 178 66 62 114 134 149 225 27 69 29 81 28 218 0
130 -3 153 -27 225 -86 255 -348 451 -712 531 -64 14 -300 28 -335 19z"/>
</g>
</svg>
